<svg version="1.2" xmlns="http://www.w3.org/2000/svg" viewBox="0 0 240 160" width="55" height="37">
	<title>FlagaKenii</title>
	<style>
		.s0 { fill: #ffffff } 
		.s1 { fill: #000000 } 
		.s2 { fill: #006600 } 
		.s3 { fill: #000000;stroke: #000000;stroke-miterlimit:10 } 
		.s4 { fill: #bb0000 } 
	</style>
	<path class="s0" d="m0 0h240v160h-240z"/>
	<path class="s1" d="m0 0h240v48h-240z"/>
	<path class="s2" d="m0 112h240v48h-240z"/>
	<g id="B">
		<path id="A" class="s3" d="m91.4 127.5l1.8 1 46.7-80.9c2.7-0.7 4.2-3.3 5.7-5.9 1-1.8 5-8.7 6.7-17.7-6.9 6-10.9 12.9-11.9 14.7-1.5 2.6-3 5.2-2.3 7.9z"/>
		<path id="A" class="s0" d="m91.4 127.5l1.8 1 46.7-80.9c2.7-0.7 4.2-3.3 5.7-5.9 1-1.8 5-8.7 6.7-17.7-6.9 6-10.9 12.9-11.9 14.7-1.5 2.6-3 5.2-2.3 7.9z"/>
	</g>
	<g id="B">
		<path id="A" class="s3" d="m148.6 127.5l-1.8 1-46.7-80.9c-2.7-0.7-4.2-3.3-5.7-5.9-1-1.8-5-8.7-6.7-17.7 6.9 6 10.9 12.9 11.9 14.7 1.5 2.6 3 5.2 2.3 7.9z"/>
		<path id="A" class="s0" d="m148.6 127.5l-1.8 1-46.7-80.9c-2.7-0.7-4.2-3.3-5.7-5.9-1-1.8-5-8.7-6.7-17.7 6.9 6 10.9 12.9 11.9 14.7 1.5 2.6 3 5.2 2.3 7.9z"/>
	</g>
	<path class="s4" d="m0 56v48h101c3 8 13 24 19 24 6 0 16-16 19-24h101v-48h-101c-3-8-13-24-19-24-6 0-16 16-19 24z"/>
	<path id="C" class="s1" d="m139 104c3-8 5-16 5-24 0-8-2-16-5-24-3 8-5 16-5 24 0 8 2 16 5 24z"/>
	<path id="C" class="s1" d="m101 104c-3-8-5-16-5-24 0-8 2-16 5-24 3 8 5 16 5 24 0 8-2 16-5 24z"/>
	<g>
		<path fill-rule="evenodd" class="s0" d="m120 86c-2.2 0-4-2.7-4-6 0-3.3 1.8-6 4-6 2.2 0 4 2.7 4 6 0 3.3-1.8 6-4 6z"/>
		<path id="D" class="s0" d="m121 85.8c0 0 4 8 4 21 0 13-4 21-4 21z"/>
		<path id="D" class="s0" d="m119 74.2c0 0-4-8-4-21.1 0-13 4-21 4-21z"/>
		<path id="D" class="s0" d="m119 85.8c0 0-4 8-4 21 0 13 4 21 4 21z"/>
		<path id="D" class="s0" d="m121 74.2c0 0 4-8 4-21.1 0-13-4-21-4-21z"/>
	</g>
</svg>